<?xml version="1.0"?>
<svg enable-background="new 0 0 128 128" id="Layer_1" version="1.1" viewBox="0 0 128 128" xml:space="preserve" xmlns="http://www.w3.org/2000/svg" xmlns:xlink="http://www.w3.org/1999/xlink" width="128" height="128"><circle cx="64" cy="64" fill="#4B5F83" id="circle" r="64"></circle><g id="server_2_"><g id="bottom_lines"><rect fill="#22313F" height="3" id="right" width="10" x="34" y="84"></rect><rect fill="#22313F" height="3" id="left" width="10" x="83.9" y="84"></rect></g><g id="_x30_2_1_"><rect fill="#E6E6E6" height="3" id="line" width="60" x="34" y="61"></rect><path d="M95,84H33c-2.2,0-4-1.8-4-4V68c0-2.2,1.8-4,4-4h62c2.2,0,4,1.8,4,4v12C99,82.2,97.2,84,95,84z" fill="#FFFFFF" id="bg_1_"></path><circle cx="90.9" cy="74" fill="#26A65B" id="green_1_" r="3"></circle><circle cx="81.9" cy="74" fill="#CF000F" id="red_1_" r="3"></circle><g id="lines_1_"><rect fill="#E6E6E6" height="10" id="line_6_" width="3" x="34" y="69"></rect><rect fill="#E6E6E6" height="10" id="line_5_" width="3" x="40" y="69"></rect><rect fill="#E6E6E6" height="10" id="line_4_" width="3" x="46" y="69"></rect></g></g><g id="_x30_1"><path d="M95,61H33c-2.2,0-4-1.8-4-4V45c0-2.2,1.8-4,4-4h62c2.2,0,4,1.8,4,4v12C99,59.2,97.2,61,95,61z" fill="#FFFFFF" id="bg"></path><circle cx="90.9" cy="51" fill="#26A65B" id="green" r="3"></circle><circle cx="81.9" cy="51" fill="#CF000F" id="red" r="3"></circle><g id="lines"><rect fill="#E6E6E6" height="10" id="line_3_" width="3" x="34" y="46"></rect><rect fill="#E6E6E6" height="10" id="line_2_" width="3" x="40" y="46"></rect><rect fill="#E6E6E6" height="10" id="line_1_" width="3" x="46" y="46"></rect></g></g></g></svg>